<svg id="Layer_1" data-name="Layer 1" xmlns="http://www.w3.org/2000/svg" viewBox="0 0 817.56 242.76">
  <defs>
    <style>
      .cls-1 {
        fill: #aa2330;
      }
    </style>
  </defs>
  <g>
    <polygon class="cls-1" points="130.79 213.46 130.79 238.92 0 238.92 0 3.84 30.34 3.84 30.34 213.46 130.79 213.46"/>
    <path class="cls-1" d="M344.26,363.45c-62.78,0-109.17,48.83-109.17,123.47,0,71.16,43.6,119.29,105.69,119.29,60,0,109.17-42.9,109.17-123.82C450,412.63,408.44,363.45,344.26,363.45Zm-1.74,218c-47.78,0-75-45-75-95.21,0-51.62,25.11-98,75.34-98,50.57,0,75,48.83,75,95.56C417.86,537.15,390.65,581.44,342.52,581.44Z" transform="translate(-98.02 -363.45)"/>
    <path class="cls-1" d="M668.29,478.9v113c-13.6,4.88-40.46,12.9-72.2,12.9-35.58,0-64.87-9.07-87.89-31-20.23-19.53-32.79-50.92-32.79-87.54.35-70.11,48.48-121.38,127.31-121.38,27.2,0,48.48,5.93,58.59,10.81L654,400.42c-12.56-5.58-28.25-10.11-52-10.11-57.2,0-94.52,35.58-94.52,94.52,0,59.64,35.92,94.87,90.68,94.87,19.88,0,33.49-2.79,40.46-6.28v-70.1H590.86V478.9Z" transform="translate(-98.02 -363.45)"/>
    <path class="cls-1" d="M809.9,363.45c-62.78,0-109.17,48.83-109.17,123.47,0,71.16,43.6,119.29,105.68,119.29,60,0,109.17-42.9,109.17-123.82C915.58,412.63,874.07,363.45,809.9,363.45Zm-1.75,218c-47.78,0-75-45-75-95.21,0-51.62,25.11-98,75.33-98,50.58,0,75,48.83,75,95.56C883.49,537.15,856.29,581.44,808.15,581.44Z" transform="translate(-98.02 -363.45)"/>
  </g>
</svg>
